<svg width="160" height="160" viewBox="0 0 160 160" fill="none" xmlns="http://www.w3.org/2000/svg">
<rect width="160" height="160" fill="#E06473"/>
<path d="M55.9734 140V131.273H59.4165C60.0785 131.273 60.6424 131.399 61.1083 131.652C61.5742 131.902 61.9293 132.25 62.1737 132.696C62.4208 133.139 62.5444 133.651 62.5444 134.23C62.5444 134.81 62.4194 135.321 62.1694 135.764C61.9194 136.207 61.5572 136.553 61.0827 136.8C60.6112 137.047 60.0401 137.17 59.3697 137.17H57.1751V135.692H59.0714C59.4265 135.692 59.7191 135.631 59.9492 135.509C60.1822 135.384 60.3555 135.212 60.4691 134.993C60.5856 134.771 60.6438 134.517 60.6438 134.23C60.6438 133.94 60.5856 133.687 60.4691 133.472C60.3555 133.253 60.1822 133.084 59.9492 132.964C59.7163 132.842 59.4208 132.781 59.0629 132.781H57.8185V140H55.9734ZM63.7429 140V131.273H67.1861C67.8452 131.273 68.4077 131.391 68.8736 131.626C69.3423 131.859 69.6989 132.19 69.9432 132.619C70.1903 133.045 70.3139 133.547 70.3139 134.124C70.3139 134.703 70.1889 135.202 69.9389 135.619C69.6889 136.034 69.3267 136.352 68.8523 136.574C68.3807 136.795 67.8097 136.906 67.1392 136.906H64.8338V135.423H66.8409C67.1932 135.423 67.4858 135.375 67.7188 135.278C67.9517 135.182 68.125 135.037 68.2386 134.844C68.3551 134.651 68.4134 134.411 68.4134 134.124C68.4134 133.834 68.3551 133.589 68.2386 133.391C68.125 133.192 67.9503 133.041 67.7145 132.939C67.4815 132.834 67.1875 132.781 66.8324 132.781H65.5881V140H63.7429ZM68.456 136.028L70.625 140H68.5881L66.4659 136.028H68.456ZM79.6378 135.636C79.6378 136.588 79.4574 137.398 79.0966 138.065C78.7386 138.733 78.25 139.243 77.6307 139.595C77.0142 139.945 76.321 140.119 75.5511 140.119C74.7756 140.119 74.0795 139.943 73.4631 139.591C72.8466 139.239 72.3594 138.729 72.0014 138.061C71.6435 137.393 71.4645 136.585 71.4645 135.636C71.4645 134.685 71.6435 133.875 72.0014 133.207C72.3594 132.54 72.8466 132.031 73.4631 131.682C74.0795 131.33 74.7756 131.153 75.5511 131.153C76.321 131.153 77.0142 131.33 77.6307 131.682C78.25 132.031 78.7386 132.54 79.0966 133.207C79.4574 133.875 79.6378 134.685 79.6378 135.636ZM77.767 135.636C77.767 135.02 77.6747 134.5 77.4901 134.077C77.3082 133.653 77.0511 133.332 76.7188 133.114C76.3864 132.895 75.9972 132.786 75.5511 132.786C75.1051 132.786 74.7159 132.895 74.3835 133.114C74.0511 133.332 73.7926 133.653 73.608 134.077C73.4261 134.5 73.3352 135.02 73.3352 135.636C73.3352 136.253 73.4261 136.773 73.608 137.196C73.7926 137.619 74.0511 137.94 74.3835 138.159C74.7159 138.378 75.1051 138.487 75.5511 138.487C75.9972 138.487 76.3864 138.378 76.7188 138.159C77.0511 137.94 77.3082 137.619 77.4901 137.196C77.6747 136.773 77.767 136.253 77.767 135.636ZM81.0046 140V131.273H86.783V132.794H82.8498V134.874H86.3995V136.395H82.8498V140H81.0046ZM89.8693 131.273V140H88.0241V131.273H89.8693ZM91.3874 140V131.273H93.2326V138.479H96.9741V140H91.3874ZM98.196 140V131.273H104.077V132.794H100.041V134.874H103.774V136.395H100.041V138.479H104.094V140H98.196Z" fill="white"/>
<path d="M80 28C55.6935 28 36 47.6935 36 72C36 96.3065 55.6935 116 80 116C104.306 116 124 96.3065 124 72C124 47.6935 104.306 28 80 28ZM80 45.0323C88.6226 45.0323 95.6129 52.0226 95.6129 60.6452C95.6129 69.2677 88.6226 76.2581 80 76.2581C71.3774 76.2581 64.3871 69.2677 64.3871 60.6452C64.3871 52.0226 71.3774 45.0323 80 45.0323ZM80 106.065C69.5855 106.065 60.2532 101.345 54.0081 93.9645C57.3435 87.6839 63.8726 83.3548 71.4839 83.3548C71.9097 83.3548 72.3355 83.4258 72.7435 83.55C75.05 84.2952 77.4629 84.7742 80 84.7742C82.5371 84.7742 84.9677 84.2952 87.2565 83.55C87.6645 83.4258 88.0903 83.3548 88.5161 83.3548C96.1274 83.3548 102.656 87.6839 105.992 93.9645C99.7468 101.345 90.4145 106.065 80 106.065Z" fill="white"/>
</svg>
