<svg width="160" height="160" viewBox="0 0 160 160" fill="none" xmlns="http://www.w3.org/2000/svg">
<rect width="160" height="160" fill="#A965FF"/>
<path d="M23.0479 140H21.0707L24.0835 131.273H26.4613L29.4698 140H27.4925L25.3065 133.267H25.2383L23.0479 140ZM22.9244 136.57H27.5948V138.01H22.9244V136.57ZM31.0071 131.273L33.1165 137.903H33.1974L35.3111 131.273H37.3565L34.348 140H31.9702L28.9574 131.273H31.0071ZM38.7511 140H36.7738L39.7866 131.273H42.1644L45.1729 140H43.1957L41.0096 133.267H40.9414L38.7511 140ZM38.6275 136.57H43.2979V138.01H38.6275V136.57ZM48.0685 131.273V140H46.2234V131.273H48.0685ZM49.5866 140V131.273H51.4318V138.479H55.1733V140H49.5866ZM58.1222 140H56.1449L59.1577 131.273H61.5355L64.544 140H62.5668L60.3807 133.267H60.3125L58.1222 140ZM57.9986 136.57H62.669V138.01H57.9986V136.57ZM65.5945 140V131.273H69.0888C69.7308 131.273 70.2663 131.368 70.6953 131.558C71.1243 131.749 71.4467 132.013 71.6626 132.351C71.8786 132.686 71.9865 133.072 71.9865 133.51C71.9865 133.851 71.9183 134.151 71.782 134.409C71.6456 134.665 71.4581 134.875 71.2195 135.04C70.9837 135.202 70.7138 135.317 70.4098 135.385V135.47C70.7422 135.484 71.0533 135.578 71.343 135.751C71.6357 135.925 71.8729 136.168 72.0547 136.48C72.2365 136.79 72.3274 137.159 72.3274 137.588C72.3274 138.051 72.2124 138.464 71.9822 138.828C71.755 139.189 71.4183 139.474 70.9723 139.685C70.5263 139.895 69.9766 140 69.3232 140H65.5945ZM67.4396 138.491H68.9439C69.4581 138.491 69.8331 138.393 70.0689 138.197C70.3047 137.999 70.4226 137.734 70.4226 137.405C70.4226 137.163 70.3643 136.95 70.2479 136.766C70.1314 136.581 69.9652 136.436 69.7493 136.331C69.5362 136.226 69.282 136.173 68.9865 136.173H67.4396V138.491ZM67.4396 134.925H68.8075C69.0604 134.925 69.2848 134.881 69.4808 134.793C69.6797 134.702 69.8359 134.574 69.9496 134.409C70.0661 134.244 70.1243 134.047 70.1243 133.817C70.1243 133.501 70.0121 133.247 69.7876 133.054C69.5661 132.861 69.2507 132.764 68.8416 132.764H67.4396V134.925ZM73.5281 140V131.273H75.3732V138.479H79.1147V140H73.5281ZM80.3366 140V131.273H86.2173V132.794H82.1818V134.874H85.9148V136.395H82.1818V138.479H86.2344V140H80.3366ZM90.1293 132.794V131.273H97.2969V132.794H94.625V140H92.8011V132.794H90.1293ZM103.868 131.273H105.713V136.94C105.713 137.577 105.561 138.134 105.257 138.611C104.956 139.088 104.534 139.46 103.991 139.727C103.449 139.991 102.817 140.124 102.095 140.124C101.371 140.124 100.737 139.991 100.195 139.727C99.652 139.46 99.2301 139.088 98.929 138.611C98.6278 138.134 98.4773 137.577 98.4773 136.94V131.273H100.322V136.783C100.322 137.115 100.395 137.411 100.54 137.669C100.688 137.928 100.895 138.131 101.162 138.278C101.429 138.426 101.74 138.5 102.095 138.5C102.453 138.5 102.764 138.426 103.028 138.278C103.295 138.131 103.501 137.928 103.646 137.669C103.794 137.411 103.868 137.115 103.868 136.783V131.273ZM106.899 132.794V131.273H114.066V132.794H111.395V140H109.571V132.794H106.899ZM122.868 135.636C122.868 136.588 122.688 137.398 122.327 138.065C121.969 138.733 121.48 139.243 120.861 139.595C120.245 139.945 119.551 140.119 118.782 140.119C118.006 140.119 117.31 139.943 116.694 139.591C116.077 139.239 115.59 138.729 115.232 138.061C114.874 137.393 114.695 136.585 114.695 135.636C114.695 134.685 114.874 133.875 115.232 133.207C115.59 132.54 116.077 132.031 116.694 131.682C117.31 131.33 118.006 131.153 118.782 131.153C119.551 131.153 120.245 131.33 120.861 131.682C121.48 132.031 121.969 132.54 122.327 133.207C122.688 133.875 122.868 134.685 122.868 135.636ZM120.998 135.636C120.998 135.02 120.905 134.5 120.721 134.077C120.539 133.653 120.282 133.332 119.949 133.114C119.617 132.895 119.228 132.786 118.782 132.786C118.336 132.786 117.946 132.895 117.614 133.114C117.282 133.332 117.023 133.653 116.838 134.077C116.657 134.5 116.566 135.02 116.566 135.636C116.566 136.253 116.657 136.773 116.838 137.196C117.023 137.619 117.282 137.94 117.614 138.159C117.946 138.378 118.336 138.487 118.782 138.487C119.228 138.487 119.617 138.378 119.949 138.159C120.282 137.94 120.539 137.619 120.721 137.196C120.905 136.773 120.998 136.253 120.998 135.636ZM124.235 140V131.273H127.678C128.337 131.273 128.9 131.391 129.366 131.626C129.835 131.859 130.191 132.19 130.435 132.619C130.683 133.045 130.806 133.547 130.806 134.124C130.806 134.703 130.681 135.202 130.431 135.619C130.181 136.034 129.819 136.352 129.344 136.574C128.873 136.795 128.302 136.906 127.631 136.906H125.326V135.423H127.333C127.685 135.423 127.978 135.375 128.211 135.278C128.444 135.182 128.617 135.037 128.731 134.844C128.847 134.651 128.906 134.411 128.906 134.124C128.906 133.834 128.847 133.589 128.731 133.391C128.617 133.192 128.442 133.041 128.207 132.939C127.974 132.834 127.68 132.781 127.325 132.781H126.08V140H124.235ZM128.948 136.028L131.117 140H129.08L126.958 136.028H128.948ZM136.844 133.783C136.81 133.439 136.664 133.172 136.406 132.982C136.147 132.791 135.796 132.696 135.353 132.696C135.052 132.696 134.798 132.739 134.59 132.824C134.383 132.906 134.224 133.021 134.113 133.169C134.005 133.317 133.951 133.484 133.951 133.672C133.945 133.828 133.978 133.964 134.049 134.081C134.123 134.197 134.224 134.298 134.352 134.384C134.479 134.466 134.627 134.538 134.795 134.601C134.962 134.661 135.141 134.712 135.332 134.754L136.116 134.942C136.496 135.027 136.846 135.141 137.164 135.283C137.482 135.425 137.758 135.599 137.991 135.807C138.224 136.014 138.404 136.259 138.532 136.54C138.663 136.821 138.729 137.143 138.732 137.507C138.729 138.041 138.593 138.504 138.323 138.896C138.056 139.286 137.67 139.588 137.164 139.804C136.661 140.017 136.055 140.124 135.344 140.124C134.64 140.124 134.026 140.016 133.504 139.8C132.984 139.584 132.577 139.264 132.285 138.841C131.995 138.415 131.843 137.888 131.829 137.26H133.614C133.634 137.553 133.718 137.797 133.866 137.993C134.016 138.186 134.217 138.332 134.467 138.432C134.719 138.528 135.005 138.577 135.323 138.577C135.636 138.577 135.907 138.531 136.137 138.44C136.37 138.349 136.55 138.223 136.678 138.061C136.806 137.899 136.87 137.713 136.87 137.503C136.87 137.307 136.812 137.142 136.695 137.009C136.582 136.875 136.414 136.761 136.192 136.668C135.974 136.574 135.705 136.489 135.387 136.412L134.437 136.173C133.701 135.994 133.12 135.714 132.694 135.334C132.268 134.953 132.056 134.44 132.059 133.795C132.056 133.267 132.197 132.805 132.481 132.411C132.768 132.016 133.161 131.707 133.661 131.486C134.161 131.264 134.729 131.153 135.366 131.153C136.013 131.153 136.579 131.264 137.062 131.486C137.548 131.707 137.925 132.016 138.195 132.411C138.465 132.805 138.604 133.263 138.613 133.783H136.844Z" fill="white"/>
<path d="M36.75 66.2857C43.6445 66.2857 49.25 60.7123 49.25 53.8571C49.25 47.002 43.6445 41.4286 36.75 41.4286C29.8555 41.4286 24.25 47.002 24.25 53.8571C24.25 60.7123 29.8555 66.2857 36.75 66.2857ZM124.25 66.2857C131.145 66.2857 136.75 60.7123 136.75 53.8571C136.75 47.002 131.145 41.4286 124.25 41.4286C117.355 41.4286 111.75 47.002 111.75 53.8571C111.75 60.7123 117.355 66.2857 124.25 66.2857ZM130.5 72.5H118C114.562 72.5 111.457 73.8788 109.191 76.1121C117.062 80.4038 122.648 88.1522 123.859 97.3571H136.75C140.207 97.3571 143 94.5801 143 91.1429V84.9286C143 78.0734 137.395 72.5 130.5 72.5ZM80.5 72.5C92.5898 72.5 102.375 62.7708 102.375 50.75C102.375 38.7292 92.5898 29 80.5 29C68.4102 29 58.625 38.7292 58.625 50.75C58.625 62.7708 68.4102 72.5 80.5 72.5ZM95.5 78.7143H93.8789C89.8164 80.6563 85.3047 81.8214 80.5 81.8214C75.6953 81.8214 71.2031 80.6563 67.1211 78.7143H65.5C53.0781 78.7143 43 88.7348 43 101.086V106.679C43 111.825 47.1992 116 52.375 116H108.625C113.801 116 118 111.825 118 106.679V101.086C118 88.7348 107.922 78.7143 95.5 78.7143ZM51.8086 76.1121C49.543 73.8788 46.4375 72.5 43 72.5H30.5C23.6055 72.5 18 78.0734 18 84.9286V91.1429C18 94.5801 20.793 97.3571 24.25 97.3571H37.1211C38.3516 88.1522 43.9375 80.4038 51.8086 76.1121Z" fill="white"/>
</svg>
