<svg width="160" height="160" viewBox="0 0 160 160" fill="none" xmlns="http://www.w3.org/2000/svg">
<rect width="160" height="160" fill="#70D560"/>
<path d="M23.6531 140V131.273H27.1474C27.7894 131.273 28.3249 131.368 28.7539 131.558C29.1829 131.749 29.5053 132.013 29.7212 132.351C29.9371 132.686 30.0451 133.072 30.0451 133.51C30.0451 133.851 29.9769 134.151 29.8406 134.409C29.7042 134.665 29.5167 134.875 29.2781 135.04C29.0423 135.202 28.7724 135.317 28.4684 135.385V135.47C28.8008 135.484 29.1119 135.578 29.4016 135.751C29.6942 135.925 29.9315 136.168 30.1133 136.48C30.2951 136.79 30.386 137.159 30.386 137.588C30.386 138.051 30.271 138.464 30.0408 138.828C29.8136 139.189 29.4769 139.474 29.0309 139.685C28.5849 139.895 28.0352 140 27.3817 140H23.6531ZM25.4982 138.491H27.0025C27.5167 138.491 27.8917 138.393 28.1275 138.197C28.3633 137.999 28.4812 137.734 28.4812 137.405C28.4812 137.163 28.4229 136.95 28.3065 136.766C28.19 136.581 28.0238 136.436 27.8079 136.331C27.5948 136.226 27.3406 136.173 27.0451 136.173H25.4982V138.491ZM25.4982 134.925H26.8661C27.119 134.925 27.3434 134.881 27.5394 134.793C27.7383 134.702 27.8945 134.574 28.0082 134.409C28.1246 134.244 28.1829 134.047 28.1829 133.817C28.1829 133.501 28.0707 133.247 27.8462 133.054C27.6246 132.861 27.3093 132.764 26.9002 132.764H25.4982V134.925ZM39.6065 135.636C39.6065 136.588 39.4261 137.398 39.0653 138.065C38.7074 138.733 38.2188 139.243 37.5994 139.595C36.983 139.945 36.2898 140.119 35.5199 140.119C34.7443 140.119 34.0483 139.943 33.4318 139.591C32.8153 139.239 32.3281 138.729 31.9702 138.061C31.6122 137.393 31.4332 136.585 31.4332 135.636C31.4332 134.685 31.6122 133.875 31.9702 133.207C32.3281 132.54 32.8153 132.031 33.4318 131.682C34.0483 131.33 34.7443 131.153 35.5199 131.153C36.2898 131.153 36.983 131.33 37.5994 131.682C38.2188 132.031 38.7074 132.54 39.0653 133.207C39.4261 133.875 39.6065 134.685 39.6065 135.636ZM37.7358 135.636C37.7358 135.02 37.6435 134.5 37.4588 134.077C37.277 133.653 37.0199 133.332 36.6875 133.114C36.3551 132.895 35.9659 132.786 35.5199 132.786C35.0739 132.786 34.6847 132.895 34.3523 133.114C34.0199 133.332 33.7614 133.653 33.5767 134.077C33.3949 134.5 33.304 135.02 33.304 135.636C33.304 136.253 33.3949 136.773 33.5767 137.196C33.7614 137.619 34.0199 137.94 34.3523 138.159C34.6847 138.378 35.0739 138.487 35.5199 138.487C35.9659 138.487 36.3551 138.378 36.6875 138.159C37.0199 137.94 37.277 137.619 37.4588 137.196C37.6435 136.773 37.7358 136.253 37.7358 135.636ZM48.9933 135.636C48.9933 136.588 48.8129 137.398 48.4521 138.065C48.0941 138.733 47.6055 139.243 46.9862 139.595C46.3697 139.945 45.6765 140.119 44.9066 140.119C44.131 140.119 43.435 139.943 42.8185 139.591C42.2021 139.239 41.7148 138.729 41.3569 138.061C40.9989 137.393 40.82 136.585 40.82 135.636C40.82 134.685 40.9989 133.875 41.3569 133.207C41.7148 132.54 42.2021 132.031 42.8185 131.682C43.435 131.33 44.131 131.153 44.9066 131.153C45.6765 131.153 46.3697 131.33 46.9862 131.682C47.6055 132.031 48.0941 132.54 48.4521 133.207C48.8129 133.875 48.9933 134.685 48.9933 135.636ZM47.1225 135.636C47.1225 135.02 47.0302 134.5 46.8455 134.077C46.6637 133.653 46.4066 133.332 46.0742 133.114C45.7418 132.895 45.3526 132.786 44.9066 132.786C44.4606 132.786 44.0714 132.895 43.739 133.114C43.4066 133.332 43.1481 133.653 42.9634 134.077C42.7816 134.5 42.6907 135.02 42.6907 135.636C42.6907 136.253 42.7816 136.773 42.9634 137.196C43.1481 137.619 43.4066 137.94 43.739 138.159C44.0714 138.378 44.4606 138.487 44.9066 138.487C45.3526 138.487 45.7418 138.378 46.0742 138.159C46.4066 137.94 46.6637 137.619 46.8455 137.196C47.0302 136.773 47.1225 136.253 47.1225 135.636ZM50.3601 140V131.273H52.2053V135.121H52.3203L55.4609 131.273H57.6726L54.4339 135.18L57.7109 140H55.5036L53.1129 136.412L52.2053 137.52V140H50.3601ZM58.6335 140V131.273H64.5142V132.794H60.4787V134.874H64.2116V136.395H60.4787V138.479H64.5312V140H58.6335ZM69.0749 140H65.9812V131.273H69.1005C69.9783 131.273 70.734 131.447 71.3675 131.797C72.0011 132.143 72.4883 132.642 72.8292 133.293C73.1729 133.943 73.3448 134.722 73.3448 135.628C73.3448 136.537 73.1729 137.318 72.8292 137.972C72.4883 138.625 71.9982 139.126 71.359 139.476C70.7227 139.825 69.9613 140 69.0749 140ZM67.8263 138.419H68.9982C69.5437 138.419 70.0025 138.322 70.3746 138.129C70.7496 137.933 71.0309 137.631 71.2184 137.222C71.4087 136.81 71.5039 136.278 71.5039 135.628C71.5039 134.983 71.4087 134.456 71.2184 134.047C71.0309 133.638 70.7511 133.337 70.3789 133.143C70.0067 132.95 69.5479 132.854 69.0025 132.854H67.8263V138.419ZM82.2234 133.783C82.1893 133.439 82.043 133.172 81.7844 132.982C81.5259 132.791 81.1751 132.696 80.7319 132.696C80.4308 132.696 80.1765 132.739 79.9691 132.824C79.7617 132.906 79.6026 133.021 79.4918 133.169C79.3839 133.317 79.3299 133.484 79.3299 133.672C79.3242 133.828 79.3569 133.964 79.4279 134.081C79.5018 134.197 79.6026 134.298 79.7305 134.384C79.8583 134.466 80.006 134.538 80.1737 134.601C80.3413 134.661 80.5202 134.712 80.7106 134.754L81.4947 134.942C81.8754 135.027 82.2248 135.141 82.543 135.283C82.8612 135.425 83.1367 135.599 83.3697 135.807C83.6026 136.014 83.783 136.259 83.9109 136.54C84.0415 136.821 84.1083 137.143 84.1112 137.507C84.1083 138.041 83.9719 138.504 83.7021 138.896C83.435 139.286 83.0487 139.588 82.543 139.804C82.0401 140.017 81.4336 140.124 80.7234 140.124C80.0188 140.124 79.4052 140.016 78.8825 139.8C78.3626 139.584 77.9563 139.264 77.6637 138.841C77.3739 138.415 77.2219 137.888 77.2077 137.26H78.9933C79.0131 137.553 79.0969 137.797 79.2447 137.993C79.3952 138.186 79.5955 138.332 79.8455 138.432C80.0984 138.528 80.3839 138.577 80.7021 138.577C81.0146 138.577 81.2859 138.531 81.516 138.44C81.7489 138.349 81.9293 138.223 82.0572 138.061C82.185 137.899 82.2489 137.713 82.2489 137.503C82.2489 137.307 82.1907 137.142 82.0742 137.009C81.9606 136.875 81.793 136.761 81.5714 136.668C81.3526 136.574 81.0842 136.489 80.766 136.412L79.8157 136.173C79.0799 135.994 78.4989 135.714 78.0728 135.334C77.6467 134.953 77.435 134.44 77.4379 133.795C77.435 133.267 77.5756 132.805 77.8597 132.411C78.1467 132.016 78.5401 131.707 79.0401 131.486C79.5401 131.264 80.1083 131.153 80.7447 131.153C81.3924 131.153 81.9577 131.264 82.4407 131.486C82.9265 131.707 83.3043 132.016 83.5742 132.411C83.8441 132.805 83.9833 133.263 83.9918 133.783H82.2234ZM85.3523 140V131.273H91.233V132.794H87.1974V134.874H90.9304V136.395H87.1974V138.479H91.25V140H85.3523ZM97.4343 133.783C97.4002 133.439 97.2539 133.172 96.9954 132.982C96.7369 132.791 96.386 132.696 95.9428 132.696C95.6417 132.696 95.3874 132.739 95.18 132.824C94.9727 132.906 94.8136 133.021 94.7028 133.169C94.5948 133.317 94.5408 133.484 94.5408 133.672C94.5352 133.828 94.5678 133.964 94.6388 134.081C94.7127 134.197 94.8136 134.298 94.9414 134.384C95.0692 134.466 95.217 134.538 95.3846 134.601C95.5522 134.661 95.7312 134.712 95.9215 134.754L96.7056 134.942C97.0863 135.027 97.4357 135.141 97.7539 135.283C98.0721 135.425 98.3477 135.599 98.5806 135.807C98.8136 136.014 98.994 136.259 99.1218 136.54C99.2525 136.821 99.3192 137.143 99.3221 137.507C99.3192 138.041 99.1829 138.504 98.913 138.896C98.646 139.286 98.2596 139.588 97.7539 139.804C97.2511 140.017 96.6445 140.124 95.9343 140.124C95.2298 140.124 94.6161 140.016 94.0934 139.8C93.5735 139.584 93.1673 139.264 92.8746 138.841C92.5849 138.415 92.4329 137.888 92.4187 137.26H94.2042C94.2241 137.553 94.3079 137.797 94.4556 137.993C94.6062 138.186 94.8065 138.332 95.0565 138.432C95.3093 138.528 95.5948 138.577 95.913 138.577C96.2255 138.577 96.4968 138.531 96.7269 138.44C96.9599 138.349 97.1403 138.223 97.2681 138.061C97.396 137.899 97.4599 137.713 97.4599 137.503C97.4599 137.307 97.4016 137.142 97.2852 137.009C97.1715 136.875 97.0039 136.761 96.7823 136.668C96.5636 136.574 96.2951 136.489 95.9769 136.412L95.0266 136.173C94.2908 135.994 93.7099 135.714 93.2837 135.334C92.8576 134.953 92.646 134.44 92.6488 133.795C92.646 133.267 92.7866 132.805 93.0707 132.411C93.3576 132.016 93.7511 131.707 94.2511 131.486C94.7511 131.264 95.3192 131.153 95.9556 131.153C96.6033 131.153 97.1687 131.264 97.6516 131.486C98.1374 131.707 98.5153 132.016 98.7852 132.411C99.055 132.805 99.1942 133.263 99.2028 133.783H97.4343ZM105.298 133.783C105.263 133.439 105.117 133.172 104.859 132.982C104.6 132.791 104.249 132.696 103.806 132.696C103.505 132.696 103.251 132.739 103.043 132.824C102.836 132.906 102.677 133.021 102.566 133.169C102.458 133.317 102.404 133.484 102.404 133.672C102.398 133.828 102.431 133.964 102.502 134.081C102.576 134.197 102.677 134.298 102.805 134.384C102.933 134.466 103.08 134.538 103.248 134.601C103.415 134.661 103.594 134.712 103.785 134.754L104.569 134.942C104.95 135.027 105.299 135.141 105.617 135.283C105.935 135.425 106.211 135.599 106.444 135.807C106.677 136.014 106.857 136.259 106.985 136.54C107.116 136.821 107.183 137.143 107.185 137.507C107.183 138.041 107.046 138.504 106.776 138.896C106.509 139.286 106.123 139.588 105.617 139.804C105.114 140.017 104.508 140.124 103.798 140.124C103.093 140.124 102.479 140.016 101.957 139.8C101.437 139.584 101.031 139.264 100.738 138.841C100.448 138.415 100.296 137.888 100.282 137.26H102.067C102.087 137.553 102.171 137.797 102.319 137.993C102.469 138.186 102.67 138.332 102.92 138.432C103.173 138.528 103.458 138.577 103.776 138.577C104.089 138.577 104.36 138.531 104.59 138.44C104.823 138.349 105.004 138.223 105.131 138.061C105.259 137.899 105.323 137.713 105.323 137.503C105.323 137.307 105.265 137.142 105.148 137.009C105.035 136.875 104.867 136.761 104.646 136.668C104.427 136.574 104.158 136.489 103.84 136.412L102.89 136.173C102.154 135.994 101.573 135.714 101.147 135.334C100.721 134.953 100.509 134.44 100.512 133.795C100.509 133.267 100.65 132.805 100.934 132.411C101.221 132.016 101.614 131.707 102.114 131.486C102.614 131.264 103.183 131.153 103.819 131.153C104.467 131.153 105.032 131.264 105.515 131.486C106.001 131.707 106.379 132.016 106.648 132.411C106.918 132.805 107.058 133.263 107.066 133.783H105.298ZM110.272 131.273V140H108.426V131.273H110.272ZM119.81 135.636C119.81 136.588 119.629 137.398 119.268 138.065C118.911 138.733 118.422 139.243 117.803 139.595C117.186 139.945 116.493 140.119 115.723 140.119C114.947 140.119 114.251 139.943 113.635 139.591C113.018 139.239 112.531 138.729 112.173 138.061C111.815 137.393 111.636 136.585 111.636 135.636C111.636 134.685 111.815 133.875 112.173 133.207C112.531 132.54 113.018 132.031 113.635 131.682C114.251 131.33 114.947 131.153 115.723 131.153C116.493 131.153 117.186 131.33 117.803 131.682C118.422 132.031 118.911 132.54 119.268 133.207C119.629 133.875 119.81 134.685 119.81 135.636ZM117.939 135.636C117.939 135.02 117.847 134.5 117.662 134.077C117.48 133.653 117.223 133.332 116.891 133.114C116.558 132.895 116.169 132.786 115.723 132.786C115.277 132.786 114.888 132.895 114.555 133.114C114.223 133.332 113.964 133.653 113.78 134.077C113.598 134.5 113.507 135.02 113.507 135.636C113.507 136.253 113.598 136.773 113.78 137.196C113.964 137.619 114.223 137.94 114.555 138.159C114.888 138.378 115.277 138.487 115.723 138.487C116.169 138.487 116.558 138.378 116.891 138.159C117.223 137.94 117.48 137.619 117.662 137.196C117.847 136.773 117.939 136.253 117.939 135.636ZM128.476 131.273V140H126.882L123.086 134.507H123.022V140H121.176V131.273H122.796L126.563 136.761H126.64V131.273H128.476ZM134.735 133.783C134.701 133.439 134.555 133.172 134.296 132.982C134.038 132.791 133.687 132.696 133.244 132.696C132.942 132.696 132.688 132.739 132.481 132.824C132.273 132.906 132.114 133.021 132.004 133.169C131.896 133.317 131.842 133.484 131.842 133.672C131.836 133.828 131.869 133.964 131.94 134.081C132.013 134.197 132.114 134.298 132.242 134.384C132.37 134.466 132.518 134.538 132.685 134.601C132.853 134.661 133.032 134.712 133.222 134.754L134.006 134.942C134.387 135.027 134.737 135.141 135.055 135.283C135.373 135.425 135.648 135.599 135.881 135.807C136.114 136.014 136.295 136.259 136.423 136.54C136.553 136.821 136.62 137.143 136.623 137.507C136.62 138.041 136.484 138.504 136.214 138.896C135.947 139.286 135.56 139.588 135.055 139.804C134.552 140.017 133.945 140.124 133.235 140.124C132.531 140.124 131.917 140.016 131.394 139.8C130.874 139.584 130.468 139.264 130.175 138.841C129.886 138.415 129.734 137.888 129.719 137.26H131.505C131.525 137.553 131.609 137.797 131.756 137.993C131.907 138.186 132.107 138.332 132.357 138.432C132.61 138.528 132.896 138.577 133.214 138.577C133.526 138.577 133.798 138.531 134.028 138.44C134.261 138.349 134.441 138.223 134.569 138.061C134.697 137.899 134.761 137.713 134.761 137.503C134.761 137.307 134.702 137.142 134.586 137.009C134.472 136.875 134.305 136.761 134.083 136.668C133.864 136.574 133.596 136.489 133.278 136.412L132.327 136.173C131.592 135.994 131.011 135.714 130.585 135.334C130.158 134.953 129.947 134.44 129.95 133.795C129.947 133.267 130.087 132.805 130.371 132.411C130.658 132.016 131.052 131.707 131.552 131.486C132.052 131.264 132.62 131.153 133.256 131.153C133.904 131.153 134.469 131.264 134.952 131.486C135.438 131.707 135.816 132.016 136.086 132.411C136.356 132.805 136.495 133.263 136.504 133.783H134.735Z" fill="white"/>
<path d="M60.7502 88.5C60.3394 88.5 59.9286 88.5602 59.5368 88.6873C57.3093 89.4109 54.9666 89.875 52.5002 89.875C50.0338 89.875 47.6912 89.4109 45.4619 88.6873C45.0701 88.5602 44.661 88.5 44.2502 88.5C33.5837 88.5 24.9436 97.1763 25.0003 107.857C25.0243 112.37 28.7351 116 33.2503 116H71.7502C76.2653 116 79.9761 112.37 80.0001 107.857C80.0569 97.1763 71.4167 88.5 60.7502 88.5ZM52.5002 83C61.613 83 69.0002 75.6128 69.0002 66.5C69.0002 57.3872 61.613 50 52.5002 50C43.3874 50 36.0003 57.3872 36.0003 66.5C36.0003 75.6128 43.3874 83 52.5002 83ZM126.75 28H60.7502C56.2007 28 52.5002 31.8242 52.5002 36.5233V44.5C56.5255 44.5 60.2518 45.6653 63.5002 47.5594V39H124V88.5H113V77.5H91.0001V88.5H77.8964C81.1792 91.3686 83.5889 95.1567 84.7181 99.5H126.75C131.3 99.5 135 95.6758 135 90.9767V36.5233C135 31.8242 131.3 28 126.75 28Z" fill="white"/>
</svg>
