<svg width="160" height="160" viewBox="0 0 160 160" fill="none" xmlns="http://www.w3.org/2000/svg">
<rect width="160" height="160" fill="#65B5FF"/>
<path d="M19.9324 140V131.273H23.4267C24.0687 131.273 24.6042 131.368 25.0332 131.558C25.4622 131.749 25.7846 132.013 26.0005 132.351C26.2164 132.686 26.3244 133.072 26.3244 133.51C26.3244 133.851 26.2562 134.151 26.1199 134.409C25.9835 134.665 25.796 134.875 25.5574 135.04C25.3216 135.202 25.0517 135.317 24.7477 135.385V135.47C25.0801 135.484 25.3912 135.578 25.6809 135.751C25.9735 135.925 26.2108 136.168 26.3926 136.48C26.5744 136.79 26.6653 137.159 26.6653 137.588C26.6653 138.051 26.5502 138.464 26.3201 138.828C26.0929 139.189 25.7562 139.474 25.3102 139.685C24.8642 139.895 24.3145 140 23.661 140H19.9324ZM21.7775 138.491H23.2818C23.796 138.491 24.171 138.393 24.4068 138.197C24.6426 137.999 24.7605 137.734 24.7605 137.405C24.7605 137.163 24.7022 136.95 24.5858 136.766C24.4693 136.581 24.3031 136.436 24.0872 136.331C23.8741 136.226 23.6199 136.173 23.3244 136.173H21.7775V138.491ZM21.7775 134.925H23.1454C23.3983 134.925 23.6227 134.881 23.8187 134.793C24.0176 134.702 24.1738 134.574 24.2875 134.409C24.4039 134.244 24.4622 134.047 24.4622 133.817C24.4622 133.501 24.35 133.247 24.1255 133.054C23.9039 132.861 23.5886 132.764 23.1795 132.764H21.7775V134.925ZM35.8858 135.636C35.8858 136.588 35.7054 137.398 35.3446 138.065C34.9867 138.733 34.498 139.243 33.8787 139.595C33.2623 139.945 32.5691 140.119 31.7992 140.119C31.0236 140.119 30.3276 139.943 29.7111 139.591C29.0946 139.239 28.6074 138.729 28.2495 138.061C27.8915 137.393 27.7125 136.585 27.7125 135.636C27.7125 134.685 27.8915 133.875 28.2495 133.207C28.6074 132.54 29.0946 132.031 29.7111 131.682C30.3276 131.33 31.0236 131.153 31.7992 131.153C32.5691 131.153 33.2623 131.33 33.8787 131.682C34.498 132.031 34.9867 132.54 35.3446 133.207C35.7054 133.875 35.8858 134.685 35.8858 135.636ZM34.0151 135.636C34.0151 135.02 33.9228 134.5 33.7381 134.077C33.5563 133.653 33.2992 133.332 32.9668 133.114C32.6344 132.895 32.2452 132.786 31.7992 132.786C31.3532 132.786 30.964 132.895 30.6316 133.114C30.2992 133.332 30.0407 133.653 29.856 134.077C29.6742 134.5 29.5833 135.02 29.5833 135.636C29.5833 136.253 29.6742 136.773 29.856 137.196C30.0407 137.619 30.2992 137.94 30.6316 138.159C30.964 138.378 31.3532 138.487 31.7992 138.487C32.2452 138.487 32.6344 138.378 32.9668 138.159C33.2992 137.94 33.5563 137.619 33.7381 137.196C33.9228 136.773 34.0151 136.253 34.0151 135.636ZM45.2726 135.636C45.2726 136.588 45.0922 137.398 44.7314 138.065C44.3734 138.733 43.8848 139.243 43.2654 139.595C42.649 139.945 41.9558 140.119 41.1859 140.119C40.4103 140.119 39.7143 139.943 39.0978 139.591C38.4814 139.239 37.9941 138.729 37.6362 138.061C37.2782 137.393 37.0993 136.585 37.0993 135.636C37.0993 134.685 37.2782 133.875 37.6362 133.207C37.9941 132.54 38.4814 132.031 39.0978 131.682C39.7143 131.33 40.4103 131.153 41.1859 131.153C41.9558 131.153 42.649 131.33 43.2654 131.682C43.8848 132.031 44.3734 132.54 44.7314 133.207C45.0922 133.875 45.2726 134.685 45.2726 135.636ZM43.4018 135.636C43.4018 135.02 43.3095 134.5 43.1248 134.077C42.943 133.653 42.6859 133.332 42.3535 133.114C42.0211 132.895 41.6319 132.786 41.1859 132.786C40.7399 132.786 40.3507 132.895 40.0183 133.114C39.6859 133.332 39.4274 133.653 39.2427 134.077C39.0609 134.5 38.97 135.02 38.97 135.636C38.97 136.253 39.0609 136.773 39.2427 137.196C39.4274 137.619 39.6859 137.94 40.0183 138.159C40.3507 138.378 40.7399 138.487 41.1859 138.487C41.6319 138.487 42.0211 138.378 42.3535 138.159C42.6859 137.94 42.943 137.619 43.1248 137.196C43.3095 136.773 43.4018 136.253 43.4018 135.636ZM46.6394 140V131.273H48.4846V135.121H48.5996L51.7402 131.273H53.9519L50.7132 135.18L53.9902 140H51.7828L49.3922 136.412L48.4846 137.52V140H46.6394ZM64.9899 131.273V140H63.3961L59.5993 134.507H59.5353V140H57.6902V131.273H59.3095L63.0765 136.761H63.1532V131.273H64.9899ZM66.5144 140V131.273H72.3951V132.794H68.3596V134.874H72.0925V136.395H68.3596V138.479H72.4121V140H66.5144ZM75.8265 140L73.3294 131.273H75.345L76.7896 137.337H76.862L78.4558 131.273H80.1816L81.7711 137.349H81.8478L83.2924 131.273H85.3081L82.8109 140H81.0126L79.3507 134.294H79.2825L77.6248 140H75.8265ZM93.8074 133.783C93.7733 133.439 93.627 133.172 93.3684 132.982C93.1099 132.791 92.7591 132.696 92.3159 132.696C92.0147 132.696 91.7605 132.739 91.5531 132.824C91.3457 132.906 91.1866 133.021 91.0758 133.169C90.9679 133.317 90.9139 133.484 90.9139 133.672C90.9082 133.828 90.9409 133.964 91.0119 134.081C91.0858 134.197 91.1866 134.298 91.3145 134.384C91.4423 134.466 91.59 134.538 91.7576 134.601C91.9252 134.661 92.1042 134.712 92.2946 134.754L93.0787 134.942C93.4593 135.027 93.8088 135.141 94.127 135.283C94.4451 135.425 94.7207 135.599 94.9537 135.807C95.1866 136.014 95.367 136.259 95.4949 136.54C95.6255 136.821 95.6923 137.143 95.6951 137.507C95.6923 138.041 95.5559 138.504 95.286 138.896C95.019 139.286 94.6326 139.588 94.127 139.804C93.6241 140.017 93.0176 140.124 92.3074 140.124C91.6028 140.124 90.9892 140.016 90.4664 139.8C89.9466 139.584 89.5403 139.264 89.2477 138.841C88.9579 138.415 88.8059 137.888 88.7917 137.26H90.5772C90.5971 137.553 90.6809 137.797 90.8287 137.993C90.9792 138.186 91.1795 138.332 91.4295 138.432C91.6824 138.528 91.9679 138.577 92.286 138.577C92.5985 138.577 92.8699 138.531 93.1 138.44C93.3329 138.349 93.5133 138.223 93.6412 138.061C93.769 137.899 93.8329 137.713 93.8329 137.503C93.8329 137.307 93.7747 137.142 93.6582 137.009C93.5446 136.875 93.377 136.761 93.1554 136.668C92.9366 136.574 92.6681 136.489 92.35 136.412L91.3997 136.173C90.6639 135.994 90.0829 135.714 89.6568 135.334C89.2306 134.953 89.019 134.44 89.0218 133.795C89.019 133.267 89.1596 132.805 89.4437 132.411C89.7306 132.016 90.1241 131.707 90.6241 131.486C91.1241 131.264 91.6923 131.153 92.3287 131.153C92.9764 131.153 93.5417 131.264 94.0247 131.486C94.5105 131.707 94.8883 132.016 95.1582 132.411C95.4281 132.805 95.5673 133.263 95.5758 133.783H93.8074ZM96.9363 140V131.273H102.817V132.794H98.7814V134.874H102.514V136.395H98.7814V138.479H102.834V140H96.9363ZM109.018 133.783C108.984 133.439 108.838 133.172 108.579 132.982C108.321 132.791 107.97 132.696 107.527 132.696C107.226 132.696 106.971 132.739 106.764 132.824C106.557 132.906 106.398 133.021 106.287 133.169C106.179 133.317 106.125 133.484 106.125 133.672C106.119 133.828 106.152 133.964 106.223 134.081C106.297 134.197 106.398 134.298 106.525 134.384C106.653 134.466 106.801 134.538 106.969 134.601C107.136 134.661 107.315 134.712 107.506 134.754L108.29 134.942C108.67 135.027 109.02 135.141 109.338 135.283C109.656 135.425 109.932 135.599 110.165 135.807C110.398 136.014 110.578 136.259 110.706 136.54C110.836 136.821 110.903 137.143 110.906 137.507C110.903 138.041 110.767 138.504 110.497 138.896C110.23 139.286 109.844 139.588 109.338 139.804C108.835 140.017 108.229 140.124 107.518 140.124C106.814 140.124 106.2 140.016 105.677 139.8C105.157 139.584 104.751 139.264 104.459 138.841C104.169 138.415 104.017 137.888 104.003 137.26H105.788C105.808 137.553 105.892 137.797 106.04 137.993C106.19 138.186 106.39 138.332 106.64 138.432C106.893 138.528 107.179 138.577 107.497 138.577C107.809 138.577 108.081 138.531 108.311 138.44C108.544 138.349 108.724 138.223 108.852 138.061C108.98 137.899 109.044 137.713 109.044 137.503C109.044 137.307 108.986 137.142 108.869 137.009C108.756 136.875 108.588 136.761 108.366 136.668C108.148 136.574 107.879 136.489 107.561 136.412L106.611 136.173C105.875 135.994 105.294 135.714 104.868 135.334C104.442 134.953 104.23 134.44 104.233 133.795C104.23 133.267 104.371 132.805 104.655 132.411C104.942 132.016 105.335 131.707 105.835 131.486C106.335 131.264 106.903 131.153 107.54 131.153C108.187 131.153 108.753 131.264 109.236 131.486C109.721 131.707 110.099 132.016 110.369 132.411C110.639 132.805 110.778 133.263 110.787 133.783H109.018ZM116.882 133.783C116.847 133.439 116.701 133.172 116.443 132.982C116.184 132.791 115.833 132.696 115.39 132.696C115.089 132.696 114.835 132.739 114.627 132.824C114.42 132.906 114.261 133.021 114.15 133.169C114.042 133.317 113.988 133.484 113.988 133.672C113.982 133.828 114.015 133.964 114.086 134.081C114.16 134.197 114.261 134.298 114.389 134.384C114.517 134.466 114.664 134.538 114.832 134.601C114.999 134.661 115.178 134.712 115.369 134.754L116.153 134.942C116.534 135.027 116.883 135.141 117.201 135.283C117.519 135.425 117.795 135.599 118.028 135.807C118.261 136.014 118.441 136.259 118.569 136.54C118.7 136.821 118.767 137.143 118.769 137.507C118.767 138.041 118.63 138.504 118.36 138.896C118.093 139.286 117.707 139.588 117.201 139.804C116.698 140.017 116.092 140.124 115.382 140.124C114.677 140.124 114.063 140.016 113.541 139.8C113.021 139.584 112.615 139.264 112.322 138.841C112.032 138.415 111.88 137.888 111.866 137.26H113.651C113.671 137.553 113.755 137.797 113.903 137.993C114.053 138.186 114.254 138.332 114.504 138.432C114.757 138.528 115.042 138.577 115.36 138.577C115.673 138.577 115.944 138.531 116.174 138.44C116.407 138.349 116.588 138.223 116.715 138.061C116.843 137.899 116.907 137.713 116.907 137.503C116.907 137.307 116.849 137.142 116.732 137.009C116.619 136.875 116.451 136.761 116.23 136.668C116.011 136.574 115.742 136.489 115.424 136.412L114.474 136.173C113.738 135.994 113.157 135.714 112.731 135.334C112.305 134.953 112.093 134.44 112.096 133.795C112.093 133.267 112.234 132.805 112.518 132.411C112.805 132.016 113.198 131.707 113.698 131.486C114.198 131.264 114.767 131.153 115.403 131.153C116.051 131.153 116.616 131.264 117.099 131.486C117.585 131.707 117.963 132.016 118.232 132.411C118.502 132.805 118.642 133.263 118.65 133.783H116.882ZM121.856 131.273V140H120.01V131.273H121.856ZM131.394 135.636C131.394 136.588 131.213 137.398 130.852 138.065C130.494 138.733 130.006 139.243 129.387 139.595C128.77 139.945 128.077 140.119 127.307 140.119C126.531 140.119 125.835 139.943 125.219 139.591C124.602 139.239 124.115 138.729 123.757 138.061C123.399 137.393 123.22 136.585 123.22 135.636C123.22 134.685 123.399 133.875 123.757 133.207C124.115 132.54 124.602 132.031 125.219 131.682C125.835 131.33 126.531 131.153 127.307 131.153C128.077 131.153 128.77 131.33 129.387 131.682C130.006 132.031 130.494 132.54 130.852 133.207C131.213 133.875 131.394 134.685 131.394 135.636ZM129.523 135.636C129.523 135.02 129.431 134.5 129.246 134.077C129.064 133.653 128.807 133.332 128.475 133.114C128.142 132.895 127.753 132.786 127.307 132.786C126.861 132.786 126.472 132.895 126.139 133.114C125.807 133.332 125.548 133.653 125.364 134.077C125.182 134.5 125.091 135.02 125.091 135.636C125.091 136.253 125.182 136.773 125.364 137.196C125.548 137.619 125.807 137.94 126.139 138.159C126.472 138.378 126.861 138.487 127.307 138.487C127.753 138.487 128.142 138.378 128.475 138.159C128.807 137.94 129.064 137.619 129.246 137.196C129.431 136.773 129.523 136.253 129.523 135.636ZM140.06 131.273V140H138.466L134.67 134.507H134.606V140H132.76V131.273H134.38L138.147 136.761H138.224V131.273H140.06Z" fill="white"/>
<path d="M115.938 56.1875H43.0625C41.9235 56.1875 41 55.2745 41 54.1484V48.0312C41 43.5266 44.6936 39.875 49.25 39.875H57.5V31.0391C57.5 29.913 58.4235 29 59.5625 29H66.4375C67.5765 29 68.5 29.913 68.5 31.0391V39.875H90.5V31.0391C90.5 29.913 91.4235 29 92.5625 29H99.4375C100.577 29 101.5 29.913 101.5 31.0391V39.875H109.75C114.306 39.875 118 43.5266 118 48.0312V54.1484C118 55.2745 117.077 56.1875 115.938 56.1875ZM43.0625 61.625H115.938C117.077 61.625 118 62.538 118 63.6641V107.844C118 112.348 114.306 116 109.75 116H49.25C44.6936 116 41 112.348 41 107.844V63.6641C41 62.538 41.9235 61.625 43.0625 61.625ZM100.348 77.9285L95.5062 73.1031C94.7041 72.3036 93.3982 72.2983 92.5895 73.0915L74.3644 90.9646L66.4616 83.0883C65.6594 82.2889 64.3533 82.2836 63.5447 83.0768L58.6639 87.8635C57.8553 88.6565 57.8499 89.9476 58.6523 90.7471L72.8493 104.896C73.6514 105.696 74.9573 105.701 75.766 104.908L100.336 80.8121C101.145 80.019 101.15 78.728 100.348 77.9285Z" fill="white"/>
</svg>
