<svg width="160" height="160" viewBox="0 0 160 160" fill="none" xmlns="http://www.w3.org/2000/svg">
<rect width="160" height="160" fill="#65B5FF"/>
<path d="M31.2303 134.328H29.3638C29.3297 134.087 29.2601 133.872 29.155 133.685C29.0499 133.494 28.915 133.332 28.7502 133.199C28.5854 133.065 28.3951 132.963 28.1792 132.892C27.9661 132.821 27.7346 132.786 27.4846 132.786C27.0328 132.786 26.6394 132.898 26.3042 133.122C25.9689 133.344 25.709 133.668 25.5243 134.094C25.3397 134.517 25.2473 135.031 25.2473 135.636C25.2473 136.259 25.3397 136.781 25.5243 137.205C25.7118 137.628 25.9732 137.947 26.3084 138.163C26.6436 138.379 27.0314 138.487 27.4718 138.487C27.7189 138.487 27.9476 138.455 28.1578 138.389C28.3709 138.324 28.5598 138.229 28.7246 138.104C28.8894 137.976 29.0257 137.821 29.1337 137.639C29.2445 137.457 29.3212 137.25 29.3638 137.017L31.2303 137.026C31.182 137.426 31.0613 137.812 30.8681 138.185C30.6777 138.554 30.4206 138.885 30.0968 139.178C29.7757 139.467 29.3922 139.697 28.9462 139.868C28.503 140.036 28.0016 140.119 27.4419 140.119C26.6635 140.119 25.9675 139.943 25.3539 139.591C24.7431 139.239 24.2601 138.729 23.905 138.061C23.5527 137.393 23.3766 136.585 23.3766 135.636C23.3766 134.685 23.5556 133.875 23.9135 133.207C24.2715 132.54 24.7573 132.031 25.3709 131.682C25.9846 131.33 26.6749 131.153 27.4419 131.153C27.9476 131.153 28.4164 131.224 28.8482 131.366C29.2828 131.509 29.6678 131.716 30.003 131.989C30.3382 132.259 30.611 132.589 30.8212 132.982C31.0343 133.374 31.1706 133.822 31.2303 134.328ZM32.5534 140V131.273H35.9966C36.6557 131.273 37.2182 131.391 37.6841 131.626C38.1529 131.859 38.5094 132.19 38.7537 132.619C39.0009 133.045 39.1245 133.547 39.1245 134.124C39.1245 134.703 38.9995 135.202 38.7495 135.619C38.4995 136.034 38.1373 136.352 37.6628 136.574C37.1912 136.795 36.6202 136.906 35.9498 136.906H33.6444V135.423H35.6515C36.0037 135.423 36.2963 135.375 36.5293 135.278C36.7623 135.182 36.9355 135.037 37.0492 134.844C37.1657 134.651 37.2239 134.411 37.2239 134.124C37.2239 133.834 37.1657 133.589 37.0492 133.391C36.9355 133.192 36.7608 133.041 36.525 132.939C36.2921 132.834 35.998 132.781 35.6429 132.781H34.3986V140H32.5534ZM37.2665 136.028L39.4355 140H37.3986L35.2765 136.028H37.2665ZM40.4284 140V131.273H46.3091V132.794H42.2736V134.874H46.0066V136.395H42.2736V138.479H46.3262V140H40.4284ZM49.2804 140H47.3031L50.3159 131.273H52.6937L55.7022 140H53.725L51.5389 133.267H51.4707L49.2804 140ZM49.1568 136.57H53.8272V138.01H49.1568V136.57ZM55.3539 132.794V131.273H62.5215V132.794H59.8496V140H58.0257V132.794H55.3539ZM63.7019 140V131.273H69.5826V132.794H65.5471V134.874H69.28V136.395H65.5471V138.479H69.5996V140H63.7019ZM73.8269 140V131.273H77.3212C77.9632 131.273 78.4988 131.368 78.9277 131.558C79.3567 131.749 79.6792 132.013 79.8951 132.351C80.111 132.686 80.2189 133.072 80.2189 133.51C80.2189 133.851 80.1507 134.151 80.0144 134.409C79.878 134.665 79.6905 134.875 79.4519 135.04C79.2161 135.202 78.9462 135.317 78.6422 135.385V135.47C78.9746 135.484 79.2857 135.578 79.5755 135.751C79.8681 135.925 80.1053 136.168 80.2871 136.48C80.4689 136.79 80.5598 137.159 80.5598 137.588C80.5598 138.051 80.4448 138.464 80.2147 138.828C79.9874 139.189 79.6507 139.474 79.2047 139.685C78.7587 139.895 78.209 140 77.5556 140H73.8269ZM75.6721 138.491H77.1763C77.6905 138.491 78.0655 138.393 78.3013 138.197C78.5371 137.999 78.655 137.734 78.655 137.405C78.655 137.163 78.5968 136.95 78.4803 136.766C78.3638 136.581 78.1976 136.436 77.9817 136.331C77.7686 136.226 77.5144 136.173 77.2189 136.173H75.6721V138.491ZM75.6721 134.925H77.04C77.2928 134.925 77.5172 134.881 77.7132 134.793C77.9121 134.702 78.0684 134.574 78.182 134.409C78.2985 134.244 78.3567 134.047 78.3567 133.817C78.3567 133.501 78.2445 133.247 78.0201 133.054C77.7985 132.861 77.4831 132.764 77.074 132.764H75.6721V134.925ZM89.7804 135.636C89.7804 136.588 89.6 137.398 89.2392 138.065C88.8812 138.733 88.3926 139.243 87.7733 139.595C87.1568 139.945 86.4636 140.119 85.6937 140.119C84.9181 140.119 84.2221 139.943 83.6056 139.591C82.9892 139.239 82.502 138.729 82.144 138.061C81.786 137.393 81.6071 136.585 81.6071 135.636C81.6071 134.685 81.786 133.875 82.144 133.207C82.502 132.54 82.9892 132.031 83.6056 131.682C84.2221 131.33 84.9181 131.153 85.6937 131.153C86.4636 131.153 87.1568 131.33 87.7733 131.682C88.3926 132.031 88.8812 132.54 89.2392 133.207C89.6 133.875 89.7804 134.685 89.7804 135.636ZM87.9096 135.636C87.9096 135.02 87.8173 134.5 87.6326 134.077C87.4508 133.653 87.1937 133.332 86.8613 133.114C86.5289 132.895 86.1397 132.786 85.6937 132.786C85.2477 132.786 84.8585 132.895 84.5261 133.114C84.1937 133.332 83.9352 133.653 83.7505 134.077C83.5687 134.5 83.4778 135.02 83.4778 135.636C83.4778 136.253 83.5687 136.773 83.7505 137.196C83.9352 137.619 84.1937 137.94 84.5261 138.159C84.8585 138.378 85.2477 138.487 85.6937 138.487C86.1397 138.487 86.5289 138.378 86.8613 138.159C87.1937 137.94 87.4508 137.619 87.6326 137.196C87.8173 136.773 87.9096 136.253 87.9096 135.636ZM99.1671 135.636C99.1671 136.588 98.9867 137.398 98.6259 138.065C98.2679 138.733 97.7793 139.243 97.16 139.595C96.5435 139.945 95.8503 140.119 95.0804 140.119C94.3049 140.119 93.6088 139.943 92.9924 139.591C92.3759 139.239 91.8887 138.729 91.5307 138.061C91.1728 137.393 90.9938 136.585 90.9938 135.636C90.9938 134.685 91.1728 133.875 91.5307 133.207C91.8887 132.54 92.3759 132.031 92.9924 131.682C93.6088 131.33 94.3049 131.153 95.0804 131.153C95.8503 131.153 96.5435 131.33 97.16 131.682C97.7793 132.031 98.2679 132.54 98.6259 133.207C98.9867 133.875 99.1671 134.685 99.1671 135.636ZM97.2963 135.636C97.2963 135.02 97.204 134.5 97.0194 134.077C96.8375 133.653 96.5804 133.332 96.248 133.114C95.9157 132.895 95.5265 132.786 95.0804 132.786C94.6344 132.786 94.2452 132.895 93.9128 133.114C93.5804 133.332 93.3219 133.653 93.1373 134.077C92.9554 134.5 92.8645 135.02 92.8645 135.636C92.8645 136.253 92.9554 136.773 93.1373 137.196C93.3219 137.619 93.5804 137.94 93.9128 138.159C94.2452 138.378 94.6344 138.487 95.0804 138.487C95.5265 138.487 95.9157 138.378 96.248 138.159C96.5804 137.94 96.8375 137.619 97.0194 137.196C97.204 136.773 97.2963 136.253 97.2963 135.636ZM100.534 140V131.273H102.379V135.121H102.494L105.635 131.273H107.846L104.608 135.18L107.885 140H105.677L103.287 136.412L102.379 137.52V140H100.534ZM110.653 131.273V140H108.807V131.273H110.653ZM119.47 131.273V140H117.877L114.08 134.507H114.016V140H112.171V131.273H113.79L117.557 136.761H117.634V131.273H119.47ZM126.782 134.094C126.722 133.886 126.638 133.703 126.53 133.544C126.422 133.382 126.29 133.246 126.134 133.135C125.981 133.021 125.805 132.935 125.606 132.875C125.41 132.815 125.192 132.786 124.954 132.786C124.508 132.786 124.116 132.896 123.778 133.118C123.442 133.339 123.181 133.662 122.993 134.085C122.806 134.506 122.712 135.02 122.712 135.628C122.712 136.236 122.805 136.753 122.989 137.179C123.174 137.605 123.435 137.93 123.773 138.155C124.111 138.376 124.51 138.487 124.971 138.487C125.388 138.487 125.745 138.413 126.04 138.266C126.339 138.115 126.566 137.903 126.722 137.631C126.881 137.358 126.961 137.036 126.961 136.663L127.336 136.719H125.086V135.33H128.738V136.429C128.738 137.196 128.576 137.855 128.252 138.406C127.928 138.955 127.482 139.378 126.914 139.676C126.346 139.972 125.695 140.119 124.962 140.119C124.144 140.119 123.425 139.939 122.806 139.578C122.187 139.214 121.704 138.699 121.357 138.031C121.013 137.361 120.841 136.565 120.841 135.645C120.841 134.937 120.944 134.307 121.148 133.753C121.356 133.196 121.645 132.724 122.018 132.338C122.39 131.952 122.823 131.658 123.317 131.456C123.812 131.254 124.347 131.153 124.924 131.153C125.418 131.153 125.878 131.226 126.305 131.371C126.731 131.513 127.108 131.714 127.438 131.976C127.77 132.237 128.042 132.548 128.252 132.909C128.462 133.267 128.597 133.662 128.657 134.094H126.782ZM134.858 133.783C134.824 133.439 134.678 133.172 134.419 132.982C134.161 132.791 133.81 132.696 133.367 132.696C133.066 132.696 132.811 132.739 132.604 132.824C132.396 132.906 132.237 133.021 132.127 133.169C132.019 133.317 131.965 133.484 131.965 133.672C131.959 133.828 131.992 133.964 132.063 134.081C132.137 134.197 132.237 134.298 132.365 134.384C132.493 134.466 132.641 134.538 132.808 134.601C132.976 134.661 133.155 134.712 133.345 134.754L134.129 134.942C134.51 135.027 134.86 135.141 135.178 135.283C135.496 135.425 135.771 135.599 136.004 135.807C136.237 136.014 136.418 136.259 136.546 136.54C136.676 136.821 136.743 137.143 136.746 137.507C136.743 138.041 136.607 138.504 136.337 138.896C136.07 139.286 135.683 139.588 135.178 139.804C134.675 140.017 134.068 140.124 133.358 140.124C132.654 140.124 132.04 140.016 131.517 139.8C130.997 139.584 130.591 139.264 130.298 138.841C130.009 138.415 129.857 137.888 129.843 137.26H131.628C131.648 137.553 131.732 137.797 131.879 137.993C132.03 138.186 132.23 138.332 132.48 138.432C132.733 138.528 133.019 138.577 133.337 138.577C133.649 138.577 133.921 138.531 134.151 138.44C134.384 138.349 134.564 138.223 134.692 138.061C134.82 137.899 134.884 137.713 134.884 137.503C134.884 137.307 134.825 137.142 134.709 137.009C134.595 136.875 134.428 136.761 134.206 136.668C133.987 136.574 133.719 136.489 133.401 136.412L132.45 136.173C131.715 135.994 131.134 135.714 130.708 135.334C130.281 134.953 130.07 134.44 130.073 133.795C130.07 133.267 130.21 132.805 130.494 132.411C130.781 132.016 131.175 131.707 131.675 131.486C132.175 131.264 132.743 131.153 133.379 131.153C134.027 131.153 134.593 131.264 135.075 131.486C135.561 131.707 135.939 132.016 136.209 132.411C136.479 132.805 136.618 133.263 136.627 133.783H134.858Z" fill="white"/>
<path d="M115.938 55.5H43.0625C41.9281 55.5 41 54.5719 41 53.4375V47.25C41 42.6953 44.6953 39 49.25 39H57.5V30.0625C57.5 28.9281 58.4281 28 59.5625 28H66.4375C67.5719 28 68.5 28.9281 68.5 30.0625V39H90.5V30.0625C90.5 28.9281 91.4281 28 92.5625 28H99.4375C100.572 28 101.5 28.9281 101.5 30.0625V39H109.75C114.305 39 118 42.6953 118 47.25V53.4375C118 54.5719 117.072 55.5 115.938 55.5ZM43.0625 61H115.938C117.072 61 118 61.9281 118 63.0625V107.75C118 112.305 114.305 116 109.75 116H49.25C44.6953 116 41 112.305 41 107.75V63.0625C41 61.9281 41.9281 61 43.0625 61ZM97.375 85.0625C97.375 83.9281 96.4469 83 95.3125 83H85V72.6875C85 71.5531 84.0719 70.625 82.9375 70.625H76.0625C74.9281 70.625 74 71.5531 74 72.6875V83H63.6875C62.5531 83 61.625 83.9281 61.625 85.0625V91.9375C61.625 93.0719 62.5531 94 63.6875 94H74V104.312C74 105.447 74.9281 106.375 76.0625 106.375H82.9375C84.0719 106.375 85 105.447 85 104.312V94H95.3125C96.4469 94 97.375 93.0719 97.375 91.9375V85.0625Z" fill="white"/>
</svg>
