<svg width="160" height="160" viewBox="0 0 160 160" fill="none" xmlns="http://www.w3.org/2000/svg">
<rect width="160" height="160" fill="#FFA665"/>
<path d="M47.3777 131.273H49.6532L52.0566 137.136H52.1589L54.5623 131.273H56.8379V140H55.0481V134.32H54.9757L52.7172 139.957H51.4984L49.2399 134.298H49.1674V140H47.3777V131.273ZM58.3581 140V131.273H64.2388V132.794H60.2033V134.874H63.9363V136.395H60.2033V138.479H64.2559V140H58.3581ZM70.4402 133.783C70.4061 133.439 70.2598 133.172 70.0012 132.982C69.7427 132.791 69.3919 132.696 68.9487 132.696C68.6475 132.696 68.3933 132.739 68.1859 132.824C67.9785 132.906 67.8194 133.021 67.7086 133.169C67.6007 133.317 67.5467 133.484 67.5467 133.672C67.541 133.828 67.5737 133.964 67.6447 134.081C67.7186 134.197 67.8194 134.298 67.9473 134.384C68.0751 134.466 68.2228 134.538 68.3904 134.601C68.5581 134.661 68.737 134.712 68.9274 134.754L69.7115 134.942C70.0922 135.027 70.4416 135.141 70.7598 135.283C71.0779 135.425 71.3535 135.599 71.5865 135.807C71.8194 136.014 71.9998 136.259 72.1277 136.54C72.2583 136.821 72.3251 137.143 72.3279 137.507C72.3251 138.041 72.1887 138.504 71.9189 138.896C71.6518 139.286 71.2654 139.588 70.7598 139.804C70.2569 140.017 69.6504 140.124 68.9402 140.124C68.2356 140.124 67.622 140.016 67.0993 139.8C66.5794 139.584 66.1731 139.264 65.8805 138.841C65.5907 138.415 65.4387 137.888 65.4245 137.26H67.21C67.2299 137.553 67.3137 137.797 67.4615 137.993C67.612 138.186 67.8123 138.332 68.0623 138.432C68.3152 138.528 68.6007 138.577 68.9189 138.577C69.2314 138.577 69.5027 138.531 69.7328 138.44C69.9657 138.349 70.1461 138.223 70.274 138.061C70.4018 137.899 70.4657 137.713 70.4657 137.503C70.4657 137.307 70.4075 137.142 70.291 137.009C70.1774 136.875 70.0098 136.761 69.7882 136.668C69.5694 136.574 69.301 136.489 68.9828 136.412L68.0325 136.173C67.2967 135.994 66.7157 135.714 66.2896 135.334C65.8635 134.953 65.6518 134.44 65.6547 133.795C65.6518 133.267 65.7924 132.805 66.0765 132.411C66.3635 132.016 66.7569 131.707 67.2569 131.486C67.7569 131.264 68.3251 131.153 68.9615 131.153C69.6092 131.153 70.1745 131.264 70.6575 131.486C71.1433 131.707 71.5211 132.016 71.791 132.411C72.0609 132.805 72.2001 133.263 72.2086 133.783H70.4402ZM78.3034 133.783C78.2694 133.439 78.123 133.172 77.8645 132.982C77.606 132.791 77.2551 132.696 76.812 132.696C76.5108 132.696 76.2566 132.739 76.0492 132.824C75.8418 132.906 75.6827 133.021 75.5719 133.169C75.464 133.317 75.41 133.484 75.41 133.672C75.4043 133.828 75.437 133.964 75.508 134.081C75.5819 134.197 75.6827 134.298 75.8105 134.384C75.9384 134.466 76.0861 134.538 76.2537 134.601C76.4213 134.661 76.6003 134.712 76.7907 134.754L77.5748 134.942C77.9554 135.027 78.3049 135.141 78.623 135.283C78.9412 135.425 79.2168 135.599 79.4498 135.807C79.6827 136.014 79.8631 136.259 79.9909 136.54C80.1216 136.821 80.1884 137.143 80.1912 137.507C80.1884 138.041 80.052 138.504 79.7821 138.896C79.5151 139.286 79.1287 139.588 78.623 139.804C78.1202 140.017 77.5137 140.124 76.8034 140.124C76.0989 140.124 75.4853 140.016 74.9625 139.8C74.4426 139.584 74.0364 139.264 73.7438 138.841C73.454 138.415 73.302 137.888 73.2878 137.26H75.0733C75.0932 137.553 75.177 137.797 75.3248 137.993C75.4753 138.186 75.6756 138.332 75.9256 138.432C76.1784 138.528 76.464 138.577 76.7821 138.577C77.0946 138.577 77.3659 138.531 77.5961 138.44C77.829 138.349 78.0094 138.223 78.1373 138.061C78.2651 137.899 78.329 137.713 78.329 137.503C78.329 137.307 78.2708 137.142 78.1543 137.009C78.0407 136.875 77.873 136.761 77.6515 136.668C77.4327 136.574 77.1642 136.489 76.8461 136.412L75.8958 136.173C75.16 135.994 74.579 135.714 74.1529 135.334C73.7267 134.953 73.5151 134.44 73.5179 133.795C73.5151 133.267 73.6557 132.805 73.9398 132.411C74.2267 132.016 74.6202 131.707 75.1202 131.486C75.6202 131.264 76.1884 131.153 76.8248 131.153C77.4725 131.153 78.0378 131.264 78.5208 131.486C79.0066 131.707 79.3844 132.016 79.6543 132.411C79.9242 132.805 80.0634 133.263 80.0719 133.783H78.3034ZM82.7374 140H80.7601L83.7729 131.273H86.1507L89.1593 140H87.182L84.9959 133.267H84.9277L82.7374 140ZM82.6138 136.57H87.2843V138.01H82.6138V136.57ZM95.5865 134.094C95.5268 133.886 95.443 133.703 95.3351 133.544C95.2271 133.382 95.095 133.246 94.9387 133.135C94.7853 133.021 94.6092 132.935 94.4103 132.875C94.2143 132.815 93.997 132.786 93.7583 132.786C93.3123 132.786 92.9203 132.896 92.5822 133.118C92.247 133.339 91.9856 133.662 91.7981 134.085C91.6106 134.506 91.5169 135.02 91.5169 135.628C91.5169 136.236 91.6092 136.753 91.7939 137.179C91.9785 137.605 92.2399 137.93 92.5779 138.155C92.916 138.376 93.3152 138.487 93.7754 138.487C94.193 138.487 94.5495 138.413 94.845 138.266C95.1433 138.115 95.3706 137.903 95.5268 137.631C95.6859 137.358 95.7654 137.036 95.7654 136.663L96.1404 136.719H93.8904V135.33H97.5424V136.429C97.5424 137.196 97.3805 137.855 97.0566 138.406C96.7328 138.955 96.2868 139.378 95.7186 139.676C95.1504 139.972 94.4998 140.119 93.7669 140.119C92.9487 140.119 92.2299 139.939 91.6106 139.578C90.9913 139.214 90.5083 138.699 90.1618 138.031C89.818 137.361 89.6461 136.565 89.6461 135.645C89.6461 134.937 89.7484 134.307 89.9529 133.753C90.1603 133.196 90.4501 132.724 90.8223 132.338C91.1944 131.952 91.6277 131.658 92.122 131.456C92.6163 131.254 93.1518 131.153 93.7285 131.153C94.2228 131.153 94.6831 131.226 95.1092 131.371C95.5353 131.513 95.9132 131.714 96.2427 131.976C96.5751 132.237 96.8464 132.548 97.0566 132.909C97.2669 133.267 97.4018 133.662 97.4615 134.094H95.5865ZM98.9284 140V131.273H104.809V132.794H100.774V134.874H104.507V136.395H100.774V138.479H104.826V140H98.9284ZM111.01 133.783C110.976 133.439 110.83 133.172 110.572 132.982C110.313 132.791 109.962 132.696 109.519 132.696C109.218 132.696 108.964 132.739 108.756 132.824C108.549 132.906 108.39 133.021 108.279 133.169C108.171 133.317 108.117 133.484 108.117 133.672C108.111 133.828 108.144 133.964 108.215 134.081C108.289 134.197 108.39 134.298 108.518 134.384C108.645 134.466 108.793 134.538 108.961 134.601C109.128 134.661 109.307 134.712 109.498 134.754L110.282 134.942C110.662 135.027 111.012 135.141 111.33 135.283C111.648 135.425 111.924 135.599 112.157 135.807C112.39 136.014 112.57 136.259 112.698 136.54C112.829 136.821 112.895 137.143 112.898 137.507C112.895 138.041 112.759 138.504 112.489 138.896C112.222 139.286 111.836 139.588 111.33 139.804C110.827 140.017 110.221 140.124 109.51 140.124C108.806 140.124 108.192 140.016 107.67 139.8C107.15 139.584 106.743 139.264 106.451 138.841C106.161 138.415 106.009 137.888 105.995 137.26H107.78C107.8 137.553 107.884 137.797 108.032 137.993C108.182 138.186 108.383 138.332 108.633 138.432C108.885 138.528 109.171 138.577 109.489 138.577C109.802 138.577 110.073 138.531 110.303 138.44C110.536 138.349 110.716 138.223 110.844 138.061C110.972 137.899 111.036 137.713 111.036 137.503C111.036 137.307 110.978 137.142 110.861 137.009C110.748 136.875 110.58 136.761 110.358 136.668C110.14 136.574 109.871 136.489 109.553 136.412L108.603 136.173C107.867 135.994 107.286 135.714 106.86 135.334C106.434 134.953 106.222 134.44 106.225 133.795C106.222 133.267 106.363 132.805 106.647 132.411C106.934 132.016 107.327 131.707 107.827 131.486C108.327 131.264 108.895 131.153 109.532 131.153C110.18 131.153 110.745 131.264 111.228 131.486C111.714 131.707 112.091 132.016 112.361 132.411C112.631 132.805 112.77 133.263 112.779 133.783H111.01Z" fill="white"/>
<path d="M79.5943 31C55.5972 31 37 48.539 37 72.2288C37 84.6196 42.0914 95.3274 50.3789 102.724C51.8099 104.011 51.5151 104.757 51.7585 112.704C51.7776 113.26 51.9327 113.804 52.2101 114.287C52.4875 114.77 52.8789 115.177 53.3501 115.474C53.8213 115.771 54.358 115.948 54.9133 115.99C55.4687 116.032 56.0259 115.938 56.5363 115.715C65.6035 111.722 65.7201 111.406 67.2573 111.824C93.5267 119.055 122 102.243 122 72.2288C122 48.539 103.593 31 79.5943 31ZM105.17 62.7275L92.6596 82.5339C92.1872 83.2787 91.566 83.9178 90.8351 84.4113C90.1041 84.9048 89.2791 85.242 88.4118 85.4018C87.5444 85.5616 86.6534 85.5405 85.7946 85.3398C84.9358 85.1391 84.1277 84.7632 83.421 84.2357L73.4677 76.7858C73.0228 76.4521 72.4816 76.2717 71.9254 76.2717C71.3692 76.2717 70.828 76.4521 70.3831 76.7858L56.9527 86.9726C55.1602 88.3317 52.8124 86.1843 54.0206 84.2871L66.5306 64.4807C67.0029 63.7358 67.6239 63.0964 68.3549 62.6027C69.0858 62.1091 69.9109 61.7718 70.7783 61.612C71.6457 61.4522 72.5368 61.4734 73.3956 61.6742C74.2545 61.875 75.0626 62.2511 75.7693 62.7789L85.7191 70.2271C86.164 70.5608 86.7052 70.7412 87.2614 70.7412C87.8176 70.7412 88.3588 70.5608 88.8037 70.2271L102.241 60.0506C104.03 58.683 106.378 60.8286 105.17 62.7275Z" fill="white"/>
</svg>
