<svg width="160" height="160" viewBox="0 0 160 160" fill="none" xmlns="http://www.w3.org/2000/svg">
<rect width="160" height="160" fill="#FF6565"/>
<path d="M52.7859 133.783C52.7518 133.439 52.6055 133.172 52.3469 132.982C52.0884 132.791 51.7376 132.696 51.2944 132.696C50.9933 132.696 50.739 132.739 50.5316 132.824C50.3242 132.906 50.1651 133.021 50.0543 133.169C49.9464 133.317 49.8924 133.484 49.8924 133.672C49.8867 133.828 49.9194 133.964 49.9904 134.081C50.0643 134.197 50.1651 134.298 50.293 134.384C50.4208 134.466 50.5685 134.538 50.7362 134.601C50.9038 134.661 51.0827 134.712 51.2731 134.754L52.0572 134.942C52.4379 135.027 52.7873 135.141 53.1055 135.283C53.4237 135.425 53.6992 135.599 53.9322 135.807C54.1651 136.014 54.3455 136.259 54.4734 136.54C54.604 136.821 54.6708 137.143 54.6737 137.507C54.6708 138.041 54.5344 138.504 54.2646 138.896C53.9975 139.286 53.6112 139.588 53.1055 139.804C52.6026 140.017 51.9961 140.124 51.2859 140.124C50.5813 140.124 49.9677 140.016 49.445 139.8C48.9251 139.584 48.5188 139.264 48.2262 138.841C47.9364 138.415 47.7844 137.888 47.7702 137.26H49.5558C49.5756 137.553 49.6594 137.797 49.8072 137.993C49.9577 138.186 50.158 138.332 50.408 138.432C50.6609 138.528 50.9464 138.577 51.2646 138.577C51.5771 138.577 51.8484 138.531 52.0785 138.44C52.3114 138.349 52.4918 138.223 52.6197 138.061C52.7475 137.899 52.8114 137.713 52.8114 137.503C52.8114 137.307 52.7532 137.142 52.6367 137.009C52.5231 136.875 52.3555 136.761 52.1339 136.668C51.9151 136.574 51.6467 136.489 51.3285 136.412L50.3782 136.173C49.6424 135.994 49.0614 135.714 48.6353 135.334C48.2092 134.953 47.9975 134.44 48.0004 133.795C47.9975 133.267 48.1381 132.805 48.4222 132.411C48.7092 132.016 49.1026 131.707 49.6026 131.486C50.1026 131.264 50.6708 131.153 51.3072 131.153C51.9549 131.153 52.5202 131.264 53.0032 131.486C53.489 131.707 53.8668 132.016 54.1367 132.411C54.4066 132.805 54.5458 133.263 54.5543 133.783H52.7859ZM55.5824 132.794V131.273H62.75V132.794H60.0781V140H58.2543V132.794H55.5824ZM69.321 131.273H71.1662V136.94C71.1662 137.577 71.0142 138.134 70.7102 138.611C70.4091 139.088 69.9872 139.46 69.4446 139.727C68.902 139.991 68.2699 140.124 67.5483 140.124C66.8239 140.124 66.1903 139.991 65.6477 139.727C65.1051 139.46 64.6832 139.088 64.3821 138.611C64.081 138.134 63.9304 137.577 63.9304 136.94V131.273H65.7756V136.783C65.7756 137.115 65.848 137.411 65.9929 137.669C66.1406 137.928 66.348 138.131 66.6151 138.278C66.8821 138.426 67.1932 138.5 67.5483 138.5C67.9063 138.5 68.2173 138.426 68.4815 138.278C68.7486 138.131 68.9545 137.928 69.0994 137.669C69.2472 137.411 69.321 137.115 69.321 136.783V131.273ZM75.7781 140H72.6843V131.273H75.8036C76.6815 131.273 77.4371 131.447 78.0707 131.797C78.7042 132.143 79.1914 132.642 79.5323 133.293C79.8761 133.943 80.0479 134.722 80.0479 135.628C80.0479 136.537 79.8761 137.318 79.5323 137.972C79.1914 138.625 78.7013 139.126 78.0621 139.476C77.4258 139.825 76.6644 140 75.7781 140ZM74.5295 138.419H75.7013C76.2468 138.419 76.7056 138.322 77.0778 138.129C77.4528 137.933 77.734 137.631 77.9215 137.222C78.1119 136.81 78.207 136.278 78.207 135.628C78.207 134.983 78.1119 134.456 77.9215 134.047C77.734 133.638 77.4542 133.337 77.082 133.143C76.7099 132.95 76.2511 132.854 75.7056 132.854H74.5295V138.419ZM81.4148 140V131.273H87.2955V132.794H83.2599V134.874H86.9929V136.395H83.2599V138.479H87.3125V140H81.4148ZM96.0621 131.273V140H94.4684L90.6715 134.507H90.6076V140H88.7624V131.273H90.3817L94.1488 136.761H94.2255V131.273H96.0621ZM97.2543 132.794V131.273H104.422V132.794H101.75V140H99.9261V132.794H97.2543ZM110.337 133.783C110.303 133.439 110.156 133.172 109.898 132.982C109.639 132.791 109.288 132.696 108.845 132.696C108.544 132.696 108.29 132.739 108.082 132.824C107.875 132.906 107.716 133.021 107.605 133.169C107.497 133.317 107.443 133.484 107.443 133.672C107.438 133.828 107.47 133.964 107.541 134.081C107.615 134.197 107.716 134.298 107.844 134.384C107.972 134.466 108.119 134.538 108.287 134.601C108.455 134.661 108.634 134.712 108.824 134.754L109.608 134.942C109.989 135.027 110.338 135.141 110.656 135.283C110.974 135.425 111.25 135.599 111.483 135.807C111.716 136.014 111.896 136.259 112.024 136.54C112.155 136.821 112.222 137.143 112.224 137.507C112.222 138.041 112.085 138.504 111.815 138.896C111.548 139.286 111.162 139.588 110.656 139.804C110.153 140.017 109.547 140.124 108.837 140.124C108.132 140.124 107.518 140.016 106.996 139.8C106.476 139.584 106.07 139.264 105.777 138.841C105.487 138.415 105.335 137.888 105.321 137.26H107.107C107.126 137.553 107.21 137.797 107.358 137.993C107.509 138.186 107.709 138.332 107.959 138.432C108.212 138.528 108.497 138.577 108.815 138.577C109.128 138.577 109.399 138.531 109.629 138.44C109.862 138.349 110.043 138.223 110.17 138.061C110.298 137.899 110.362 137.713 110.362 137.503C110.362 137.307 110.304 137.142 110.188 137.009C110.074 136.875 109.906 136.761 109.685 136.668C109.466 136.574 109.197 136.489 108.879 136.412L107.929 136.173C107.193 135.994 106.612 135.714 106.186 135.334C105.76 134.953 105.548 134.44 105.551 133.795C105.548 133.267 105.689 132.805 105.973 132.411C106.26 132.016 106.653 131.707 107.153 131.486C107.653 131.264 108.222 131.153 108.858 131.153C109.506 131.153 110.071 131.264 110.554 131.486C111.04 131.707 111.418 132.016 111.688 132.411C111.957 132.805 112.097 133.263 112.105 133.783H110.337Z" fill="white"/>
<path d="M95.8969 83.1047L79.5 99.5008L63.1031 83.1047C50.8141 83.6375 41 93.6917 41 106.1V107.75C41 112.305 44.6953 116 49.25 116H109.75C114.305 116 118 112.305 118 107.75V106.1C118 93.6917 108.186 83.6375 95.8969 83.1047ZM43.3375 41.7193L44.4375 41.9771V52.0141C43.2344 52.7359 42.375 53.9905 42.375 55.503C42.375 56.9466 43.1656 58.1497 44.2828 58.8887L41.6016 69.596C41.3094 70.7819 41.9625 72.0021 42.9078 72.0021H50.0922C51.0375 72.0021 51.6906 70.7819 51.3984 69.596L48.7172 58.8887C49.8344 58.1497 50.625 56.9466 50.625 55.503C50.625 53.9905 49.7656 52.7359 48.5625 52.0141V42.9739L59.9062 45.7066C58.4281 48.6627 57.5 51.9625 57.5 55.503C57.5 67.6539 67.3484 77.5019 79.5 77.5019C91.6516 77.5019 101.5 67.6539 101.5 55.503C101.5 51.9625 100.589 48.6627 99.0938 45.7066L115.645 41.7193C118.773 40.963 118.773 37.0617 115.645 36.3055L82.9203 28.3996C80.6859 27.8668 78.3312 27.8668 76.0969 28.3996L43.3375 36.2883C40.2266 37.0445 40.2266 40.963 43.3375 41.7193Z" fill="white"/>
</svg>
